<?xml version="1.0" encoding="UTF-8" standalone="no"?>
<!-- Generator: Adobe Illustrator 27.1.1, SVG Export Plug-In . SVG Version: 6.00 Build 0)  -->

<svg
   version="1.1"
   id="Layer_1"
   x="0px"
   y="0px"
   viewBox="0 0 290.39999 86.049995"
   xml:space="preserve"
   sodipodi:docname="xrhuman logo-01.svg"
   width="290.39999"
   height="86.049995"
   inkscape:export-filename="xrhuman.svg"
   inkscape:export-xdpi="9.5664339"
   inkscape:export-ydpi="9.5664339"
   xmlns:inkscape="http://www.inkscape.org/namespaces/inkscape"
   xmlns:sodipodi="http://sodipodi.sourceforge.net/DTD/sodipodi-0.dtd"
   xmlns="http://www.w3.org/2000/svg"
   xmlns:svg="http://www.w3.org/2000/svg"><defs
   id="defs10" /><sodipodi:namedview
   id="namedview10"
   pagecolor="#ffffff"
   bordercolor="#666666"
   borderopacity="1.0"
   inkscape:showpageshadow="2"
   inkscape:pageopacity="0.0"
   inkscape:pagecheckerboard="0"
   inkscape:deskcolor="#d1d1d1" />
<style
   type="text/css"
   id="style1">
	.st0{fill:#02A7EB;}
	.st1{fill:#FFFFFF;}
</style>
<g
   id="g10"
   transform="translate(-18.76,-17.26)">
	<g
   id="g6">
		<g
   id="g5">
			
			
			<path
   d="M 309.16,103.3 V 72.79 Z"
   id="path3"
   sodipodi:nodetypes="ccc" />
			
			
		</g>
	</g>
	<path
   class="st0"
   d="m 61.07,51.92 c 6.69,0 12.39,-2.36 17.11,-7.07 4.71,-4.72 7.07,-10.42 7.07,-17.11 v -9.07 h 18.14 v 9.07 c 0,11.69 -4.13,21.66 -12.39,29.92 -1.21,1.21 -2.44,2.32 -3.69,3.32 1.25,1.01 2.48,2.12 3.69,3.33 8.26,8.26 12.39,18.24 12.39,29.92 v 9.07 H 85.26 v -9.07 c 0,-6.69 -2.36,-12.39 -7.07,-17.11 -4.72,-4.71 -10.42,-7.07 -17.11,-7.07 -6.69,0 -12.39,2.36 -17.11,7.07 -4.72,4.72 -7.07,10.42 -7.07,17.11 v 9.07 H 18.76 v -9.07 c 0,-11.69 4.13,-21.66 12.39,-29.92 1.21,-1.21 2.44,-2.32 3.69,-3.33 C 33.59,59.97 32.36,58.86 31.15,57.66 22.89,49.4 18.76,39.42 18.76,27.74 V 18.67 H 36.9 v 9.07 c 0,6.69 2.36,12.39 7.07,17.11 4.71,4.71 10.41,7.07 17.1,7.07 z"
   id="path6" />
	<g
   id="g9">
		<g
   id="g8">
			<path
   class="st0"
   d="m 159.13,72.4 c 0.84,-0.68 1.66,-1.42 2.46,-2.21 5.67,-5.67 8.51,-12.52 8.51,-20.55 0,-8.03 -2.84,-14.88 -8.51,-20.55 -5.67,-5.67 -12.52,-8.51 -20.55,-8.51 h -29.06 v 22.7 35.42 22.7 h 12.46 V 78.7 h 16.61 c 0.59,0 1.16,-0.02 1.74,-0.05 3.85,0.36 7.19,1.95 10.01,4.77 3.24,3.24 4.86,7.16 4.86,11.75 v 6.23 h 12.46 v -6.23 c 0,-8.03 -2.84,-14.88 -8.51,-20.55 -0.83,-0.81 -1.65,-1.54 -2.48,-2.22 z m -34.7,-6.16 V 43.28 33.03 h 16.61 c 4.59,0 8.51,1.62 11.75,4.86 3.24,3.24 4.86,7.16 4.86,11.75 0,4.6 -1.62,8.51 -4.86,11.75 -2.73,2.73 -5.95,4.3 -9.65,4.72 h -2.08 c 0,0 -0.01,0 -0.01,0 v 0.13 z"
   id="path7" />
			<path
   class="st0"
   d="m 172,103.3 h -16.27 v -8.13 c 0,-4.11 -1.41,-7.51 -4.3,-10.4 -2.49,-2.49 -5.34,-3.87 -8.71,-4.21 -0.56,0.03 -1.12,0.05 -1.69,0.05 h -14.7 v 22.7 H 110.06 V 18.67 h 30.97 c 8.51,0 15.88,3.05 21.9,9.07 6.02,6.02 9.07,13.38 9.07,21.9 0,8.51 -3.05,15.88 -9.07,21.9 -0.29,0.29 -0.59,0.58 -0.9,0.87 0.31,0.28 0.61,0.57 0.9,0.87 6.02,6.02 9.07,13.39 9.07,21.9 z m -12.45,-3.81 h 8.65 v -4.32 c 0,-7.57 -2.6,-13.85 -7.95,-19.2 -0.74,-0.74 -1.52,-1.44 -2.31,-2.09 l -1.82,-1.48 1.82,-1.48 c 0.83,-0.68 1.59,-1.36 2.31,-2.08 5.35,-5.35 7.95,-11.63 7.95,-19.2 0,-7.57 -2.6,-13.85 -7.95,-19.2 -5.35,-5.35 -11.63,-7.95 -19.2,-7.95 h -27.16 v 77.02 h 8.65 v -22.7 h 18.51 c 0.55,0 1.1,-0.02 1.64,-0.05 l 0.14,-0.01 0.14,0.01 c 4.29,0.4 8.05,2.2 11.18,5.32 3.59,3.59 5.42,8 5.42,13.1 v 4.31 z M 142.94,68.15 H 122.52 V 31.12 h 18.51 c 5.1,0 9.5,1.82 13.1,5.42 3.59,3.59 5.42,8 5.42,13.1 0,5.1 -1.82,9.5 -5.42,13.1 -3.02,3.02 -6.65,4.79 -10.78,5.27 l -0.41,0.01 z m -16.61,-3.81 h 12.8 V 64.2 h 3.89 c 3.26,-0.4 6.01,-1.76 8.42,-4.17 2.89,-2.89 4.3,-6.3 4.3,-10.4 0,-4.1 -1.41,-7.51 -4.3,-10.4 -2.89,-2.89 -6.3,-4.3 -10.4,-4.3 h -14.7 v 29.41 z"
   id="path8" />
		</g>
	</g>
	<path
   d="m 50.55,27.71 c 0,-1.4 0.28,-2.74 0.85,-4.01 0.57,-1.27 1.34,-2.37 2.31,-3.32 0.97,-0.94 2.09,-1.7 3.36,-2.27 1.27,-0.57 2.63,-0.85 4.09,-0.85 1.4,0 2.74,0.28 4.01,0.85 1.27,0.57 2.37,1.32 3.32,2.27 0.94,0.95 1.7,2.05 2.27,3.32 0.57,1.27 0.85,2.6 0.85,4.01 0,1.46 -0.28,2.83 -0.85,4.13 -0.57,1.29 -1.32,2.44 -2.27,3.44 -0.95,1 -2.05,1.78 -3.32,2.35 -1.27,0.57 -2.6,0.85 -4.01,0.85 -1.46,0 -2.82,-0.28 -4.09,-0.85 -1.27,-0.57 -2.39,-1.35 -3.36,-2.35 -0.97,-1 -1.74,-2.15 -2.31,-3.44 -0.57,-1.3 -0.85,-2.68 -0.85,-4.13 z"
   id="path9" />
</g>
</svg>
